<svg width="24" height="24" viewBox="0 0 24 24" fill="none" xmlns="http://www.w3.org/2000/svg">
<g clip-path="url(#clip0_2003_436)">
<path d="M12 0C10.35 0 9 1.35 9 3V21C9 22.65 10.35 24 12 24C13.65 24 15 22.65 15 21V3C15 1.35 13.65 0 12 0ZM14 21C14 22.1 13.1 23 12 23C10.9 23 10 22.1 10 21V3C10 1.9 10.9 1 12 1C13.1 1 14 1.9 14 3V21ZM21 6C19.35 6 18 7.35 18 9V21C18 22.65 19.35 24 21 24C22.65 24 24 22.65 24 21V9C24 7.35 22.65 6 21 6ZM23 21C23 22.1 22.1 23 21 23C19.9 23 19 22.1 19 21V9C19 7.9 19.9 7 21 7C22.1 7 23 7.9 23 9V21ZM3 12C1.35 12 0 13.35 0 15V21C0 22.65 1.35 24 3 24C4.65 24 6 22.65 6 21V15C6 13.35 4.65 12 3 12ZM5 21C5 22.1 4.1 23 3 23C1.9 23 1 22.1 1 21V15C1 13.9 1.9 13 3 13C4.1 13 5 13.9 5 15V21Z" fill="black"/>
</g>
<defs>
<clipPath id="clip0_2003_436">
<rect width="24" height="24" fill="white"/>
</clipPath>
</defs>
</svg>
