<svg width="24" height="24" viewBox="0 0 24 24" fill="none" xmlns="http://www.w3.org/2000/svg">
<path d="M3.99998 0H6.99998C9.20911 0 11 1.79086 11 3.99998V6.99998C11 9.20911 9.20911 11 6.99998 11H3.99998C1.79086 11 0 9.20916 0 6.99998V3.99998C0 1.79086 1.79086 0 3.99998 0Z" fill="black"/>
<path d="M16.9999 0H19.9999C22.209 0 23.9998 1.79086 23.9998 3.99998V6.99998C23.9998 9.20911 22.209 11 19.9999 11H16.9999C14.7907 11 12.9999 9.20911 12.9999 6.99998V3.99998C12.9998 1.79086 14.7907 0 16.9999 0Z" fill="black"/>
<path d="M3.99998 13H6.99998C9.20911 13 11 14.7909 11 17V20C11 22.2091 9.20911 24 6.99998 24H3.99998C1.79086 24 0 22.2092 0 20V17C0 14.7909 1.79086 13 3.99998 13Z" fill="black"/>
<path d="M16.9999 13H19.9999C22.209 13 23.9998 14.7909 23.9998 17V20C23.9998 22.2092 22.209 24 19.9999 24H16.9999C14.7907 24 12.9999 22.2092 12.9999 20V17C12.9998 14.7909 14.7907 13 16.9999 13Z" fill="black"/>
</svg>
