<svg width="56" height="56" viewBox="0 0 56 56" fill="none" xmlns="http://www.w3.org/2000/svg">
<path d="M29.3542 0H26.6462V56H29.3542V0Z" fill="#395917"/>
<path d="M56 26.6461H0V29.354H56V26.6461Z" fill="#395917"/>
<path d="M9.15379 7.24165L7.23901 9.15643L46.8366 48.754L48.7514 46.8393L9.15379 7.24165Z" fill="#395917"/>
<path d="M46.8366 7.24131L7.23901 46.8389L9.15379 48.7537L48.7514 9.15609L46.8366 7.24131Z" fill="#395917"/>
<path d="M2.58835 16.1907L1.56665 18.6985L53.4283 39.8273L54.45 37.3195L2.58835 16.1907Z" fill="#395917"/>
<path d="M37.3198 1.57014L16.191 53.4318L18.6989 54.4535L39.8277 2.59184L37.3198 1.57014Z" fill="#395917"/>
<path d="M53.4896 16.285L1.53833 37.1954L2.54947 39.7076L54.5007 18.7972L53.4896 16.285Z" fill="#395917"/>
<path d="M18.7857 1.53912L16.2736 2.54999L37.1784 54.5012L39.6905 53.4903L18.7857 1.53912Z" fill="#395917"/>
</svg>
