<svg width="16" height="24" viewBox="0 0 16 24" fill="none" xmlns="http://www.w3.org/2000/svg">
<path d="M7.99999 20C7.72399 20 7.49999 19.776 7.49999 19.5C7.49999 16.604 9.70999 15.052 11.374 14.136C14 12.688 15.412 9.711 14.888 6.727C14.395 3.915 12.086 1.606 9.27299 1.113C7.25199 0.757 5.26599 1.248 3.68099 2.491C2.11799 3.719 1.14599 5.557 1.01599 7.533C0.996992 7.809 0.757992 8.012 0.483992 7.999C0.207992 7.981 -7.84732e-06 7.743 0.0179922 7.467C0.166992 5.208 1.27699 3.107 3.06399 1.704C4.87399 0.283 7.13799 -0.278001 9.44599 0.127C12.665 0.692 15.308 3.335 15.873 6.554C16.471 9.959 14.856 13.358 11.856 15.011C9.53499 16.29 8.49999 17.675 8.49999 19.5C8.49999 19.776 8.27599 20 7.99999 20ZM6.99999 23C6.99999 23.552 7.44799 24 7.99999 24C8.55199 24 8.99999 23.552 8.99999 23C8.99999 22.448 8.55199 22 7.99999 22C7.44799 22 6.99999 22.448 6.99999 23Z" fill="black"/>
</svg>
